<mxfile host="app.diagrams.net" modified="2022-11-28T14:04:07.796Z" agent="5.0 (Windows NT 10.0; Win64; x64) AppleWebKit/537.36 (KHTML, like Gecko) Chrome/107.0.0.0 Safari/537.36" etag="qoWWqDD51QRo2LJFLRRv" version="20.6.0" type="github">
  <diagram name="Page-1" id="e7e014a7-5840-1c2e-5031-d8a46d1fe8dd">
    <mxGraphModel dx="2017" dy="2020" grid="0" gridSize="10" guides="1" tooltips="1" connect="1" arrows="1" fold="1" page="1" pageScale="1" pageWidth="2336" pageHeight="1654" background="none" math="0" shadow="0">
      <root>
        <mxCell id="0" />
        <mxCell id="1" parent="0" />
        <mxCell id="2PEdcS31-i6fL5ac7267-42" value="" style="html=1;verticalAlign=bottom;endArrow=open;endSize=8;rounded=0;targetPerimeterSpacing=8;entryX=0.5;entryY=0;entryDx=0;entryDy=0;fontStyle=0;fontSize=12;startArrow=none;exitX=0.5;exitY=1;exitDx=0;exitDy=0;fillColor=#eeeeee;strokeColor=#36393d;" edge="1" source="2PEdcS31-i6fL5ac7267-41" parent="1" target="2PEdcS31-i6fL5ac7267-43">
          <mxGeometry relative="1" as="geometry">
            <mxPoint x="72" y="58" as="targetPoint" />
            <mxPoint x="72.5" y="18" as="sourcePoint" />
          </mxGeometry>
        </mxCell>
        <mxCell id="2PEdcS31-i6fL5ac7267-43" value="输入用户信息" style="rounded=1;whiteSpace=wrap;html=1;arcSize=40;fontStyle=0;fontSize=12;" vertex="1" parent="1">
          <mxGeometry x="12" y="78" width="120" height="40" as="geometry" />
        </mxCell>
        <mxCell id="2PEdcS31-i6fL5ac7267-44" value="" style="edgeStyle=orthogonalEdgeStyle;html=1;verticalAlign=bottom;endArrow=open;endSize=8;rounded=0;sourcePerimeterSpacing=8;targetPerimeterSpacing=8;curved=1;exitX=0.5;exitY=1;exitDx=0;exitDy=0;entryX=0.5;entryY=0;entryDx=0;entryDy=0;fontStyle=0;fontSize=12;" edge="1" source="2PEdcS31-i6fL5ac7267-43" parent="1" target="2PEdcS31-i6fL5ac7267-45">
          <mxGeometry relative="1" as="geometry">
            <mxPoint x="72" y="168" as="targetPoint" />
          </mxGeometry>
        </mxCell>
        <mxCell id="2PEdcS31-i6fL5ac7267-45" value="&lt;br style=&quot;font-size: 12px;&quot;&gt;各项信息合法&lt;br style=&quot;font-size: 12px;&quot;&gt;且不空" style="rhombus;whiteSpace=wrap;html=1;fontStyle=0;fontSize=12;" vertex="1" parent="1">
          <mxGeometry x="17" y="158" width="110" height="70" as="geometry" />
        </mxCell>
        <mxCell id="2PEdcS31-i6fL5ac7267-46" value="否" style="html=1;align=left;verticalAlign=bottom;endArrow=open;endSize=8;rounded=0;sourcePerimeterSpacing=8;targetPerimeterSpacing=8;exitX=1;exitY=0.5;exitDx=0;exitDy=0;entryX=0;entryY=0.5;entryDx=0;entryDy=0;fontStyle=0;fontSize=12;" edge="1" source="2PEdcS31-i6fL5ac7267-45" parent="1" target="2PEdcS31-i6fL5ac7267-50">
          <mxGeometry x="-1" relative="1" as="geometry">
            <mxPoint x="242.5" y="193" as="targetPoint" />
          </mxGeometry>
        </mxCell>
        <mxCell id="2PEdcS31-i6fL5ac7267-47" value="是" style="edgeStyle=orthogonalEdgeStyle;html=1;align=left;verticalAlign=top;endArrow=open;endSize=8;rounded=0;sourcePerimeterSpacing=8;targetPerimeterSpacing=8;curved=1;exitX=0.5;exitY=1;exitDx=0;exitDy=0;entryX=0.5;entryY=0;entryDx=0;entryDy=0;fontStyle=0;fontSize=12;" edge="1" source="2PEdcS31-i6fL5ac7267-45" parent="1" target="2PEdcS31-i6fL5ac7267-48">
          <mxGeometry x="-1" relative="1" as="geometry">
            <mxPoint x="72.5" y="278" as="targetPoint" />
          </mxGeometry>
        </mxCell>
        <mxCell id="2PEdcS31-i6fL5ac7267-48" value="注册成功" style="rounded=1;whiteSpace=wrap;html=1;arcSize=40;fontStyle=0;fontSize=12;" vertex="1" parent="1">
          <mxGeometry x="12.5" y="268" width="120" height="40" as="geometry" />
        </mxCell>
        <mxCell id="2PEdcS31-i6fL5ac7267-49" value="" style="edgeStyle=orthogonalEdgeStyle;html=1;verticalAlign=bottom;endArrow=open;endSize=8;rounded=0;sourcePerimeterSpacing=8;targetPerimeterSpacing=8;curved=1;exitX=0.5;exitY=1;exitDx=0;exitDy=0;entryX=0.5;entryY=0;entryDx=0;entryDy=0;fontStyle=0;fontSize=12;" edge="1" source="2PEdcS31-i6fL5ac7267-48" parent="1" target="2PEdcS31-i6fL5ac7267-52">
          <mxGeometry relative="1" as="geometry">
            <mxPoint x="72.5" y="387" as="targetPoint" />
          </mxGeometry>
        </mxCell>
        <mxCell id="2PEdcS31-i6fL5ac7267-50" value="提示错误信息" style="rounded=1;whiteSpace=wrap;html=1;arcSize=40;fontStyle=0;fontSize=12;" vertex="1" parent="1">
          <mxGeometry x="192.5" y="173" width="120" height="40" as="geometry" />
        </mxCell>
        <mxCell id="2PEdcS31-i6fL5ac7267-51" value="" style="edgeStyle=orthogonalEdgeStyle;html=1;verticalAlign=bottom;endArrow=open;endSize=8;rounded=0;sourcePerimeterSpacing=8;targetPerimeterSpacing=8;entryX=1;entryY=0.5;entryDx=0;entryDy=0;exitX=0.5;exitY=0;exitDx=0;exitDy=0;fontStyle=0;fontSize=12;" edge="1" source="2PEdcS31-i6fL5ac7267-50" parent="1" target="2PEdcS31-i6fL5ac7267-43">
          <mxGeometry relative="1" as="geometry">
            <mxPoint x="322.5" y="278" as="targetPoint" />
            <Array as="points">
              <mxPoint x="252.5" y="98" />
            </Array>
          </mxGeometry>
        </mxCell>
        <mxCell id="2PEdcS31-i6fL5ac7267-52" value="用户信息录入数据库" style="rounded=1;whiteSpace=wrap;html=1;arcSize=40;fontStyle=0;fontSize=12;" vertex="1" parent="1">
          <mxGeometry x="12.5" y="348" width="120" height="40" as="geometry" />
        </mxCell>
        <mxCell id="2PEdcS31-i6fL5ac7267-53" value="" style="edgeStyle=orthogonalEdgeStyle;html=1;verticalAlign=bottom;endArrow=open;endSize=8;rounded=0;sourcePerimeterSpacing=8;targetPerimeterSpacing=8;curved=1;exitX=0.5;exitY=1;exitDx=0;exitDy=0;entryX=0.5;entryY=0;entryDx=0;entryDy=0;fillColor=#eeeeee;strokeColor=#36393d;" edge="1" source="2PEdcS31-i6fL5ac7267-52" parent="1" target="2PEdcS31-i6fL5ac7267-54">
          <mxGeometry relative="1" as="geometry">
            <mxPoint x="72.5" y="508" as="targetPoint" />
          </mxGeometry>
        </mxCell>
        <mxCell id="2PEdcS31-i6fL5ac7267-54" value="" style="ellipse;html=1;shape=endState;fillColor=#333333;strokeColor=#36393d;" vertex="1" parent="1">
          <mxGeometry x="57.5" y="428" width="30" height="30" as="geometry" />
        </mxCell>
        <mxCell id="2PEdcS31-i6fL5ac7267-41" value="" style="ellipse;html=1;shape=startState;fillColor=#333333;strokeColor=#36393d;" vertex="1" parent="1">
          <mxGeometry x="57" y="15" width="30" height="30" as="geometry" />
        </mxCell>
        <mxCell id="2PEdcS31-i6fL5ac7267-56" value="" style="html=1;verticalAlign=bottom;endArrow=open;endSize=8;rounded=0;targetPerimeterSpacing=8;entryX=0.5;entryY=0;entryDx=0;entryDy=0;fontStyle=0;fontSize=12;startArrow=none;exitX=0.5;exitY=1;exitDx=0;exitDy=0;fillColor=#eeeeee;strokeColor=#36393d;" edge="1" parent="1" source="2PEdcS31-i6fL5ac7267-69" target="2PEdcS31-i6fL5ac7267-57">
          <mxGeometry relative="1" as="geometry">
            <mxPoint x="477.5" y="58" as="targetPoint" />
            <mxPoint x="478" y="18" as="sourcePoint" />
          </mxGeometry>
        </mxCell>
        <mxCell id="2PEdcS31-i6fL5ac7267-57" value="输入用户名、密码" style="rounded=1;whiteSpace=wrap;html=1;arcSize=40;fontStyle=0;fontSize=12;" vertex="1" parent="1">
          <mxGeometry x="417.5" y="78" width="120" height="40" as="geometry" />
        </mxCell>
        <mxCell id="2PEdcS31-i6fL5ac7267-58" value="" style="edgeStyle=orthogonalEdgeStyle;html=1;verticalAlign=bottom;endArrow=open;endSize=8;rounded=0;sourcePerimeterSpacing=8;targetPerimeterSpacing=8;curved=1;exitX=0.5;exitY=1;exitDx=0;exitDy=0;entryX=0.5;entryY=0;entryDx=0;entryDy=0;fontStyle=0;fontSize=12;" edge="1" parent="1" source="2PEdcS31-i6fL5ac7267-57" target="2PEdcS31-i6fL5ac7267-70">
          <mxGeometry relative="1" as="geometry">
            <mxPoint x="477.5" y="168" as="targetPoint" />
          </mxGeometry>
        </mxCell>
        <mxCell id="2PEdcS31-i6fL5ac7267-59" value="&lt;br&gt;验证用户名和密码&lt;br&gt;是否正确" style="rhombus;whiteSpace=wrap;html=1;fontStyle=0;fontSize=12;" vertex="1" parent="1">
          <mxGeometry x="422" y="235" width="110" height="70" as="geometry" />
        </mxCell>
        <mxCell id="2PEdcS31-i6fL5ac7267-60" value="否" style="html=1;align=left;verticalAlign=bottom;endArrow=open;endSize=8;rounded=0;sourcePerimeterSpacing=8;targetPerimeterSpacing=8;exitX=1;exitY=0.5;exitDx=0;exitDy=0;entryX=0;entryY=0.5;entryDx=0;entryDy=0;fontStyle=0;fontSize=12;" edge="1" parent="1" source="2PEdcS31-i6fL5ac7267-59" target="2PEdcS31-i6fL5ac7267-64">
          <mxGeometry x="-1" relative="1" as="geometry">
            <mxPoint x="647.5" y="270" as="targetPoint" />
          </mxGeometry>
        </mxCell>
        <mxCell id="2PEdcS31-i6fL5ac7267-61" value="是" style="edgeStyle=orthogonalEdgeStyle;html=1;align=left;verticalAlign=top;endArrow=open;endSize=8;rounded=0;sourcePerimeterSpacing=8;targetPerimeterSpacing=8;curved=1;exitX=0.5;exitY=1;exitDx=0;exitDy=0;entryX=0.5;entryY=0;entryDx=0;entryDy=0;fontStyle=0;fontSize=12;" edge="1" parent="1" source="2PEdcS31-i6fL5ac7267-59" target="2PEdcS31-i6fL5ac7267-62">
          <mxGeometry x="-1" relative="1" as="geometry">
            <mxPoint x="477.5" y="363" as="targetPoint" />
          </mxGeometry>
        </mxCell>
        <mxCell id="2PEdcS31-i6fL5ac7267-62" value="登录成功" style="rounded=1;whiteSpace=wrap;html=1;arcSize=40;fontStyle=0;fontSize=12;" vertex="1" parent="1">
          <mxGeometry x="417.5" y="352" width="120" height="40" as="geometry" />
        </mxCell>
        <mxCell id="2PEdcS31-i6fL5ac7267-63" value="" style="edgeStyle=orthogonalEdgeStyle;html=1;verticalAlign=bottom;endArrow=open;endSize=8;rounded=0;sourcePerimeterSpacing=8;targetPerimeterSpacing=8;curved=1;exitX=0.5;exitY=1;exitDx=0;exitDy=0;entryX=0.5;entryY=0;entryDx=0;entryDy=0;fontStyle=0;fontSize=12;" edge="1" parent="1" source="2PEdcS31-i6fL5ac7267-62" target="2PEdcS31-i6fL5ac7267-68">
          <mxGeometry relative="1" as="geometry">
            <mxPoint x="477.5" y="433" as="targetPoint" />
          </mxGeometry>
        </mxCell>
        <mxCell id="2PEdcS31-i6fL5ac7267-64" value="提示错误信息" style="rounded=1;whiteSpace=wrap;html=1;arcSize=40;fontStyle=0;fontSize=12;" vertex="1" parent="1">
          <mxGeometry x="597.5" y="250" width="120" height="40" as="geometry" />
        </mxCell>
        <mxCell id="2PEdcS31-i6fL5ac7267-65" value="" style="edgeStyle=orthogonalEdgeStyle;html=1;verticalAlign=bottom;endArrow=open;endSize=8;rounded=0;sourcePerimeterSpacing=8;targetPerimeterSpacing=8;entryX=1;entryY=0.5;entryDx=0;entryDy=0;exitX=0.5;exitY=0;exitDx=0;exitDy=0;fontStyle=0;fontSize=12;" edge="1" parent="1" source="2PEdcS31-i6fL5ac7267-64" target="2PEdcS31-i6fL5ac7267-57">
          <mxGeometry relative="1" as="geometry">
            <mxPoint x="728" y="278" as="targetPoint" />
            <Array as="points">
              <mxPoint x="658" y="98" />
            </Array>
          </mxGeometry>
        </mxCell>
        <mxCell id="2PEdcS31-i6fL5ac7267-68" value="" style="ellipse;html=1;shape=endState;fillColor=#333333;strokeColor=#36393d;" vertex="1" parent="1">
          <mxGeometry x="462" y="428" width="30" height="30" as="geometry" />
        </mxCell>
        <mxCell id="2PEdcS31-i6fL5ac7267-69" value="" style="ellipse;html=1;shape=startState;fillColor=#333333;strokeColor=#36393d;" vertex="1" parent="1">
          <mxGeometry x="462.5" y="15" width="30" height="30" as="geometry" />
        </mxCell>
        <mxCell id="2PEdcS31-i6fL5ac7267-70" value="点击登录" style="rounded=1;whiteSpace=wrap;html=1;arcSize=40;fontStyle=0;fontSize=12;" vertex="1" parent="1">
          <mxGeometry x="417.5" y="156" width="120" height="40" as="geometry" />
        </mxCell>
        <mxCell id="2PEdcS31-i6fL5ac7267-71" value="" style="edgeStyle=orthogonalEdgeStyle;html=1;verticalAlign=bottom;endArrow=open;endSize=8;rounded=0;sourcePerimeterSpacing=8;targetPerimeterSpacing=8;curved=1;exitX=0.5;exitY=1;exitDx=0;exitDy=0;entryX=0.5;entryY=0;entryDx=0;entryDy=0;fontStyle=0;fontSize=12;" edge="1" parent="1" source="2PEdcS31-i6fL5ac7267-70" target="2PEdcS31-i6fL5ac7267-59">
          <mxGeometry relative="1" as="geometry">
            <mxPoint x="348" y="189" as="targetPoint" />
          </mxGeometry>
        </mxCell>
        <mxCell id="2PEdcS31-i6fL5ac7267-72" value="" style="html=1;verticalAlign=bottom;endArrow=open;endSize=8;rounded=0;targetPerimeterSpacing=8;entryX=0.5;entryY=0;entryDx=0;entryDy=0;fontStyle=0;fontSize=12;startArrow=none;exitX=0.5;exitY=1;exitDx=0;exitDy=0;fillColor=#eeeeee;strokeColor=#36393d;" edge="1" parent="1" source="2PEdcS31-i6fL5ac7267-83" target="2PEdcS31-i6fL5ac7267-73">
          <mxGeometry relative="1" as="geometry">
            <mxPoint x="900.5" y="74" as="targetPoint" />
            <mxPoint x="901" y="34" as="sourcePoint" />
          </mxGeometry>
        </mxCell>
        <mxCell id="2PEdcS31-i6fL5ac7267-73" value="顾客登录" style="rounded=1;whiteSpace=wrap;html=1;arcSize=40;fontStyle=0;fontSize=12;" vertex="1" parent="1">
          <mxGeometry x="840.5" y="94" width="120" height="40" as="geometry" />
        </mxCell>
        <mxCell id="2PEdcS31-i6fL5ac7267-74" value="" style="edgeStyle=orthogonalEdgeStyle;html=1;verticalAlign=bottom;endArrow=open;endSize=8;rounded=0;sourcePerimeterSpacing=8;targetPerimeterSpacing=8;curved=1;exitX=0.5;exitY=1;exitDx=0;exitDy=0;entryX=0.5;entryY=0;entryDx=0;entryDy=0;fontStyle=0;fontSize=12;" edge="1" parent="1" source="2PEdcS31-i6fL5ac7267-73" target="2PEdcS31-i6fL5ac7267-84">
          <mxGeometry relative="1" as="geometry">
            <mxPoint x="900.5" y="184" as="targetPoint" />
          </mxGeometry>
        </mxCell>
        <mxCell id="2PEdcS31-i6fL5ac7267-79" value="" style="html=1;verticalAlign=bottom;endArrow=open;endSize=8;rounded=0;sourcePerimeterSpacing=8;targetPerimeterSpacing=8;exitX=0.483;exitY=0.5;exitDx=0;exitDy=0;entryX=0.5;entryY=0;entryDx=0;entryDy=0;fontStyle=0;fontSize=12;exitPerimeter=0;" edge="1" parent="1" source="2PEdcS31-i6fL5ac7267-103" target="2PEdcS31-i6fL5ac7267-82">
          <mxGeometry relative="1" as="geometry">
            <mxPoint x="891.5" y="806" as="targetPoint" />
            <mxPoint x="891.5" y="765" as="sourcePoint" />
          </mxGeometry>
        </mxCell>
        <mxCell id="2PEdcS31-i6fL5ac7267-81" value="" style="edgeStyle=orthogonalEdgeStyle;html=1;verticalAlign=bottom;endArrow=open;endSize=8;rounded=0;sourcePerimeterSpacing=8;targetPerimeterSpacing=8;entryX=1;entryY=0.5;entryDx=0;entryDy=0;exitX=0.5;exitY=0;exitDx=0;exitDy=0;fontStyle=0;fontSize=12;" edge="1" parent="1" source="2PEdcS31-i6fL5ac7267-98" target="2PEdcS31-i6fL5ac7267-88">
          <mxGeometry relative="1" as="geometry">
            <mxPoint x="1152" y="281" as="targetPoint" />
            <Array as="points">
              <mxPoint x="1175.5" y="507" />
              <mxPoint x="1181.5" y="507" />
              <mxPoint x="1181.5" y="315" />
            </Array>
            <mxPoint x="1078.5" y="521" as="sourcePoint" />
          </mxGeometry>
        </mxCell>
        <mxCell id="2PEdcS31-i6fL5ac7267-82" value="" style="ellipse;html=1;shape=endState;fillColor=#333333;strokeColor=#36393d;" vertex="1" parent="1">
          <mxGeometry x="885.5" y="714" width="30" height="30" as="geometry" />
        </mxCell>
        <mxCell id="2PEdcS31-i6fL5ac7267-83" value="" style="ellipse;html=1;shape=startState;fillColor=#333333;strokeColor=#36393d;" vertex="1" parent="1">
          <mxGeometry x="885.5" y="41" width="30" height="30" as="geometry" />
        </mxCell>
        <mxCell id="2PEdcS31-i6fL5ac7267-84" value="进入个人主页" style="rounded=1;whiteSpace=wrap;html=1;arcSize=40;fontStyle=0;fontSize=12;" vertex="1" parent="1">
          <mxGeometry x="840.5" y="166" width="120" height="40" as="geometry" />
        </mxCell>
        <mxCell id="2PEdcS31-i6fL5ac7267-85" value="" style="edgeStyle=orthogonalEdgeStyle;html=1;verticalAlign=bottom;endArrow=open;endSize=8;rounded=0;sourcePerimeterSpacing=8;targetPerimeterSpacing=8;curved=1;exitX=0.5;exitY=1;exitDx=0;exitDy=0;entryX=0.5;entryY=0;entryDx=0;entryDy=0;fontStyle=0;fontSize=12;" edge="1" parent="1" source="2PEdcS31-i6fL5ac7267-84" target="2PEdcS31-i6fL5ac7267-86">
          <mxGeometry relative="1" as="geometry">
            <mxPoint x="771" y="205" as="targetPoint" />
          </mxGeometry>
        </mxCell>
        <mxCell id="2PEdcS31-i6fL5ac7267-86" value="点击我的订单" style="rounded=1;whiteSpace=wrap;html=1;arcSize=40;fontStyle=0;fontSize=12;" vertex="1" parent="1">
          <mxGeometry x="840.5" y="237" width="120" height="40" as="geometry" />
        </mxCell>
        <mxCell id="2PEdcS31-i6fL5ac7267-87" value="" style="html=1;verticalAlign=bottom;endArrow=open;endSize=8;rounded=0;sourcePerimeterSpacing=8;targetPerimeterSpacing=8;exitX=0.5;exitY=1;exitDx=0;exitDy=0;fontStyle=0;fontSize=12;entryX=0.5;entryY=0;entryDx=0;entryDy=0;" edge="1" parent="1" source="2PEdcS31-i6fL5ac7267-86" target="2PEdcS31-i6fL5ac7267-88">
          <mxGeometry relative="1" as="geometry">
            <mxPoint x="900.5" y="344" as="targetPoint" />
          </mxGeometry>
        </mxCell>
        <mxCell id="2PEdcS31-i6fL5ac7267-88" value="显示历史订单列表" style="rounded=1;whiteSpace=wrap;html=1;arcSize=40;fontStyle=0;fontSize=12;" vertex="1" parent="1">
          <mxGeometry x="840.5" y="308" width="120" height="40" as="geometry" />
        </mxCell>
        <mxCell id="2PEdcS31-i6fL5ac7267-89" value="" style="html=1;verticalAlign=bottom;endArrow=open;endSize=8;rounded=0;sourcePerimeterSpacing=8;targetPerimeterSpacing=8;exitX=0.5;exitY=1;exitDx=0;exitDy=0;fontStyle=0;fontSize=12;entryX=0.513;entryY=0.5;entryDx=0;entryDy=0;entryPerimeter=0;" edge="1" parent="1" source="2PEdcS31-i6fL5ac7267-88" target="2PEdcS31-i6fL5ac7267-90">
          <mxGeometry relative="1" as="geometry">
            <mxPoint x="903.5" y="382" as="targetPoint" />
          </mxGeometry>
        </mxCell>
        <mxCell id="2PEdcS31-i6fL5ac7267-90" value="" style="line;strokeWidth=3;fillColor=none;align=left;verticalAlign=middle;spacingTop=-1;spacingLeft=3;spacingRight=3;rotatable=0;labelPosition=right;points=[];portConstraint=eastwest;strokeColor=inherit;fontSize=12;" vertex="1" parent="1">
          <mxGeometry x="855" y="368" width="89" height="8" as="geometry" />
        </mxCell>
        <mxCell id="2PEdcS31-i6fL5ac7267-91" value="点击订单详情" style="rounded=1;whiteSpace=wrap;html=1;arcSize=40;fontStyle=0;fontSize=12;" vertex="1" parent="1">
          <mxGeometry x="756.5" y="418" width="120" height="40" as="geometry" />
        </mxCell>
        <mxCell id="2PEdcS31-i6fL5ac7267-92" value="点击取消订单" style="rounded=1;whiteSpace=wrap;html=1;arcSize=40;fontStyle=0;fontSize=12;" vertex="1" parent="1">
          <mxGeometry x="932.5" y="418" width="120" height="40" as="geometry" />
        </mxCell>
        <mxCell id="2PEdcS31-i6fL5ac7267-93" value="" style="html=1;verticalAlign=bottom;endArrow=open;endSize=8;rounded=0;sourcePerimeterSpacing=8;targetPerimeterSpacing=8;exitX=0.275;exitY=0.625;exitDx=0;exitDy=0;fontStyle=0;fontSize=12;entryX=0.5;entryY=0;entryDx=0;entryDy=0;exitPerimeter=0;edgeStyle=elbowEdgeStyle;elbow=vertical;" edge="1" parent="1" source="2PEdcS31-i6fL5ac7267-90" target="2PEdcS31-i6fL5ac7267-91">
          <mxGeometry relative="1" as="geometry">
            <mxPoint x="911" y="312" as="targetPoint" />
            <mxPoint x="911" y="283" as="sourcePoint" />
          </mxGeometry>
        </mxCell>
        <mxCell id="2PEdcS31-i6fL5ac7267-94" value="" style="html=1;verticalAlign=bottom;endArrow=open;endSize=8;rounded=0;sourcePerimeterSpacing=8;targetPerimeterSpacing=8;exitX=0.717;exitY=0.458;exitDx=0;exitDy=0;fontStyle=0;fontSize=12;entryX=0.5;entryY=0;entryDx=0;entryDy=0;exitPerimeter=0;edgeStyle=elbowEdgeStyle;elbow=vertical;" edge="1" parent="1" source="2PEdcS31-i6fL5ac7267-90" target="2PEdcS31-i6fL5ac7267-92">
          <mxGeometry relative="1" as="geometry">
            <mxPoint x="921" y="322" as="targetPoint" />
            <mxPoint x="921" y="293" as="sourcePoint" />
          </mxGeometry>
        </mxCell>
        <mxCell id="2PEdcS31-i6fL5ac7267-95" value="下单时间是否&lt;br&gt;在有效时间内" style="rhombus;whiteSpace=wrap;html=1;fontStyle=0;fontSize=12;" vertex="1" parent="1">
          <mxGeometry x="937.5" y="485" width="110" height="70" as="geometry" />
        </mxCell>
        <mxCell id="2PEdcS31-i6fL5ac7267-96" value="否" style="html=1;align=left;verticalAlign=bottom;endArrow=open;endSize=8;rounded=0;sourcePerimeterSpacing=8;targetPerimeterSpacing=8;exitX=1;exitY=0.5;exitDx=0;exitDy=0;entryX=0;entryY=0.5;entryDx=0;entryDy=0;fontStyle=0;fontSize=12;" edge="1" parent="1" source="2PEdcS31-i6fL5ac7267-95" target="2PEdcS31-i6fL5ac7267-98">
          <mxGeometry x="-1" relative="1" as="geometry">
            <mxPoint x="1165" y="527" as="targetPoint" />
          </mxGeometry>
        </mxCell>
        <mxCell id="2PEdcS31-i6fL5ac7267-97" value="是" style="html=1;align=left;verticalAlign=top;endArrow=open;endSize=8;rounded=0;sourcePerimeterSpacing=8;targetPerimeterSpacing=8;exitX=0.5;exitY=1;exitDx=0;exitDy=0;entryX=0.5;entryY=0;entryDx=0;entryDy=0;fontStyle=0;fontSize=12;" edge="1" parent="1" source="2PEdcS31-i6fL5ac7267-95" target="2PEdcS31-i6fL5ac7267-101">
          <mxGeometry x="-1" relative="1" as="geometry">
            <mxPoint x="995" y="609" as="targetPoint" />
          </mxGeometry>
        </mxCell>
        <mxCell id="2PEdcS31-i6fL5ac7267-98" value="提示顾客不可取消订单" style="rounded=1;whiteSpace=wrap;html=1;arcSize=40;fontStyle=0;fontSize=12;" vertex="1" parent="1">
          <mxGeometry x="1107.5" y="500" width="127.5" height="40" as="geometry" />
        </mxCell>
        <mxCell id="2PEdcS31-i6fL5ac7267-99" value="" style="edgeStyle=orthogonalEdgeStyle;html=1;align=left;verticalAlign=top;endArrow=open;endSize=8;rounded=0;sourcePerimeterSpacing=8;targetPerimeterSpacing=8;curved=1;exitX=0.5;exitY=1;exitDx=0;exitDy=0;entryX=0.5;entryY=0;entryDx=0;entryDy=0;fontStyle=0;fontSize=12;" edge="1" parent="1" source="2PEdcS31-i6fL5ac7267-92" target="2PEdcS31-i6fL5ac7267-95">
          <mxGeometry x="-1" relative="1" as="geometry">
            <mxPoint x="1005" y="619" as="targetPoint" />
            <mxPoint x="1004.5" y="572" as="sourcePoint" />
          </mxGeometry>
        </mxCell>
        <mxCell id="2PEdcS31-i6fL5ac7267-101" value="取消订单成功" style="rounded=1;whiteSpace=wrap;html=1;arcSize=40;fontStyle=0;fontSize=12;" vertex="1" parent="1">
          <mxGeometry x="932.5" y="590" width="120" height="40" as="geometry" />
        </mxCell>
        <mxCell id="2PEdcS31-i6fL5ac7267-102" value="" style="edgeStyle=elbowEdgeStyle;html=1;verticalAlign=bottom;endArrow=open;endSize=8;rounded=0;sourcePerimeterSpacing=8;targetPerimeterSpacing=8;exitX=0.5;exitY=1;exitDx=0;exitDy=0;entryX=0.603;entryY=0.417;entryDx=0;entryDy=0;fontStyle=0;fontSize=12;entryPerimeter=0;elbow=vertical;" edge="1" parent="1" source="2PEdcS31-i6fL5ac7267-101" target="2PEdcS31-i6fL5ac7267-103">
          <mxGeometry relative="1" as="geometry">
            <mxPoint x="1046" y="693" as="targetPoint" />
            <Array as="points">
              <mxPoint x="959.5" y="650" />
            </Array>
          </mxGeometry>
        </mxCell>
        <mxCell id="2PEdcS31-i6fL5ac7267-103" value="" style="line;strokeWidth=3;fillColor=none;align=left;verticalAlign=middle;spacingTop=-1;spacingLeft=3;spacingRight=3;rotatable=0;labelPosition=right;points=[];portConstraint=eastwest;strokeColor=inherit;fontSize=12;" vertex="1" parent="1">
          <mxGeometry x="857" y="678" width="89" height="8" as="geometry" />
        </mxCell>
        <mxCell id="2PEdcS31-i6fL5ac7267-104" value="显示订单详情" style="rounded=1;whiteSpace=wrap;html=1;arcSize=40;fontStyle=0;fontSize=12;" vertex="1" parent="1">
          <mxGeometry x="756.5" y="502" width="120" height="40" as="geometry" />
        </mxCell>
        <mxCell id="2PEdcS31-i6fL5ac7267-105" value="" style="html=1;verticalAlign=bottom;endArrow=open;endSize=8;rounded=0;sourcePerimeterSpacing=8;targetPerimeterSpacing=8;exitX=0.5;exitY=1;exitDx=0;exitDy=0;fontStyle=0;fontSize=12;entryX=0.341;entryY=0.5;entryDx=0;entryDy=0;entryPerimeter=0;edgeStyle=elbowEdgeStyle;elbow=vertical;" edge="1" parent="1" source="2PEdcS31-i6fL5ac7267-104" target="2PEdcS31-i6fL5ac7267-103">
          <mxGeometry relative="1" as="geometry">
            <mxPoint x="826.5" y="428" as="targetPoint" />
            <mxPoint x="888.9749999999999" y="391" as="sourcePoint" />
            <Array as="points">
              <mxPoint x="856.5" y="650" />
              <mxPoint x="849.5" y="667" />
            </Array>
          </mxGeometry>
        </mxCell>
        <mxCell id="2PEdcS31-i6fL5ac7267-106" value="" style="html=1;verticalAlign=bottom;endArrow=open;endSize=8;rounded=0;sourcePerimeterSpacing=8;targetPerimeterSpacing=8;exitX=0.5;exitY=1;exitDx=0;exitDy=0;fontStyle=0;fontSize=12;entryX=0.5;entryY=0;entryDx=0;entryDy=0;" edge="1" parent="1" source="2PEdcS31-i6fL5ac7267-91" target="2PEdcS31-i6fL5ac7267-104">
          <mxGeometry relative="1" as="geometry">
            <mxPoint x="836.5" y="438" as="targetPoint" />
            <mxPoint x="898.9749999999999" y="401" as="sourcePoint" />
          </mxGeometry>
        </mxCell>
      </root>
    </mxGraphModel>
  </diagram>
</mxfile>
